<?xml version="1.0" encoding="utf-8"?>
<!-- Generator: Adobe Illustrator 14.0.0, SVG Export Plug-In . SVG Version: 6.00 Build 43363)  -->
<!DOCTYPE svg PUBLIC "-//W3C//DTD SVG 1.1//EN" "http://www.w3.org/Graphics/SVG/1.1/DTD/svg11.dtd">
<svg version="1.1" id="Layer_1" xmlns="http://www.w3.org/2000/svg" xmlns:xlink="http://www.w3.org/1999/xlink" x="0px" y="0px"
	 width="200px" height="65px" viewBox="0 0 200 65" enable-background="new 0 0 200 65" xml:space="preserve">
<g>
	<path fill="#C1C2C2" d="M61.187,34.724H46.829v-14.37h14.358V34.724z M46.391,49.506H32.033V35.15h14.358V49.506z M61.187,49.506
		H46.829V35.15h14.358V49.506z M31.596,49.506H17.241V35.15h14.355V49.506z M31.596,34.708H17.241V20.353h14.353L31.596,34.708z
		 M46.391,34.724H32.033v-14.37h14.358V34.724z M61.63,19.916H16.801v30.033H61.63V19.916z"/>
	<rect x="75.985" y="20.355" fill="#E9E8E9" width="0.44" height="14.354"/>
	<g>
		<defs>
			<rect id="SVGID_1_" x="9.626" y="49.523" width="7.174" height="0.427"/>
		</defs>
		<clipPath id="SVGID_2_">
			<use xlink:href="#SVGID_1_"  overflow="visible"/>
		</clipPath>
		
			<linearGradient id="SVGID_3_" gradientUnits="userSpaceOnUse" x1="-124.6743" y1="374.3027" x2="-123.1819" y2="374.3027" gradientTransform="matrix(-5.9615 0 0 5.9615 -725.5859 -2181.6792)">
			<stop  offset="0" style="stop-color:#C1C2C2"/>
			<stop  offset="0.1" style="stop-color:#C1C2C2"/>
			<stop  offset="0.2229" style="stop-color:#D8D8D7"/>
			<stop  offset="0.357" style="stop-color:#EBEBEA"/>
			<stop  offset="0.491" style="stop-color:#F8F8F8"/>
			<stop  offset="0.6236" style="stop-color:#FFFFFF"/>
			<stop  offset="1" style="stop-color:#FFFFFF"/>
		</linearGradient>
		<rect x="9.626" y="49.523" clip-path="url(#SVGID_2_)" fill="url(#SVGID_3_)" width="7.173" height="0.426"/>
	</g>
	<g>
		<defs>
			<rect id="SVGID_4_" x="46.392" y="49.947" width="0.441" height="14.355"/>
		</defs>
		<clipPath id="SVGID_5_">
			<use xlink:href="#SVGID_4_"  overflow="visible"/>
		</clipPath>
		
			<linearGradient id="SVGID_6_" gradientUnits="userSpaceOnUse" x1="-79.8608" y1="341.4727" x2="-78.3683" y2="341.4727" gradientTransform="matrix(0 8.9471 8.9471 0 -3008.5745 763.5931)">
			<stop  offset="0" style="stop-color:#C1C2C2"/>
			<stop  offset="0.1" style="stop-color:#C1C2C2"/>
			<stop  offset="0.4962" style="stop-color:#DADAD9"/>
			<stop  offset="1" style="stop-color:#FAFAFA"/>
		</linearGradient>
		<rect x="46.394" y="49.949" clip-path="url(#SVGID_5_)" fill="url(#SVGID_6_)" width="0.44" height="14.354"/>
	</g>
	<g>
		<defs>
			<rect id="SVGID_7_" x="75.985" y="34.715" width="0.44" height="14.791"/>
		</defs>
		<clipPath id="SVGID_8_">
			<use xlink:href="#SVGID_7_"  overflow="visible"/>
		</clipPath>
		
			<linearGradient id="SVGID_9_" gradientUnits="userSpaceOnUse" x1="-80.4219" y1="342.5645" x2="-78.9296" y2="342.5645" gradientTransform="matrix(0 8.9471 8.9471 0 -2988.7375 753.3931)">
			<stop  offset="0" style="stop-color:#E9E8E9"/>
			<stop  offset="0.1" style="stop-color:#E9E8E9"/>
			<stop  offset="0.6606" style="stop-color:#EBEAEA"/>
			<stop  offset="0.892" style="stop-color:#F2F1F1"/>
			<stop  offset="1" style="stop-color:#FAFAFA"/>
		</linearGradient>
		<rect x="75.985" y="34.715" clip-path="url(#SVGID_8_)" fill="url(#SVGID_9_)" width="0.44" height="14.791"/>
	</g>
	<g>
		<defs>
			<rect id="SVGID_10_" x="31.591" y="12.75" width="0.444" height="7.165"/>
		</defs>
		<clipPath id="SVGID_11_">
			<use xlink:href="#SVGID_10_"  overflow="visible"/>
		</clipPath>
		
			<linearGradient id="SVGID_12_" gradientUnits="userSpaceOnUse" x1="-151.8247" y1="313.9453" x2="-150.3329" y2="313.9453" gradientTransform="matrix(0 -5.9618 -5.9618 0 1903.5018 -884.3677)">
			<stop  offset="0" style="stop-color:#C1C2C2"/>
			<stop  offset="0.1" style="stop-color:#C1C2C2"/>
			<stop  offset="0.2229" style="stop-color:#D8D8D7"/>
			<stop  offset="0.357" style="stop-color:#EBEBEA"/>
			<stop  offset="0.491" style="stop-color:#F8F8F8"/>
			<stop  offset="0.6236" style="stop-color:#FFFFFF"/>
			<stop  offset="1" style="stop-color:#FFFFFF"/>
		</linearGradient>
		<rect x="31.589" y="12.751" clip-path="url(#SVGID_11_)" fill="url(#SVGID_12_)" width="0.448" height="7.163"/>
	</g>
	<g>
		<defs>
			<rect id="SVGID_13_" x="61.187" y="0.258" width="0.443" height="19.657"/>
		</defs>
		<clipPath id="SVGID_14_">
			<use xlink:href="#SVGID_13_"  overflow="visible"/>
		</clipPath>
		
			<linearGradient id="SVGID_15_" gradientUnits="userSpaceOnUse" x1="-128.5659" y1="322.043" x2="-127.0732" y2="322.043" gradientTransform="matrix(0 -13.1313 -13.1313 0 4290.2559 -1668.337)">
			<stop  offset="0" style="stop-color:#C1C2C2"/>
			<stop  offset="0.1" style="stop-color:#C1C2C2"/>
			<stop  offset="0.4098" style="stop-color:#C4C4C4"/>
			<stop  offset="0.6064" style="stop-color:#CBCBCB"/>
			<stop  offset="0.7715" style="stop-color:#D8D8D8"/>
			<stop  offset="0.9183" style="stop-color:#ECECEB"/>
			<stop  offset="1" style="stop-color:#FFFFFF"/>
		</linearGradient>
		<rect x="61.187" y="0.258" clip-path="url(#SVGID_14_)" fill="url(#SVGID_15_)" width="0.443" height="19.656"/>
	</g>
	<g>
		<defs>
			<rect id="SVGID_16_" x="46.394" y="12.752" width="0.442" height="7.162"/>
		</defs>
		<clipPath id="SVGID_17_">
			<use xlink:href="#SVGID_16_"  overflow="visible"/>
		</clipPath>
		
			<linearGradient id="SVGID_18_" gradientUnits="userSpaceOnUse" x1="-151.8223" y1="313.1279" x2="-150.3305" y2="313.1279" gradientTransform="matrix(0 -5.9623 -5.9623 0 1913.5804 -884.4199)">
			<stop  offset="0" style="stop-color:#C1C2C2"/>
			<stop  offset="0.1" style="stop-color:#C1C2C2"/>
			<stop  offset="0.168" style="stop-color:#D0D0D0"/>
			<stop  offset="0.2768" style="stop-color:#E3E2E2"/>
			<stop  offset="0.4009" style="stop-color:#F1F0F0"/>
			<stop  offset="0.5524" style="stop-color:#FBFAFA"/>
			<stop  offset="0.809" style="stop-color:#FFFFFF"/>
			<stop  offset="1" style="stop-color:#FFFFFF"/>
		</linearGradient>
		<rect x="46.394" y="12.752" clip-path="url(#SVGID_17_)" fill="url(#SVGID_18_)" width="0.442" height="7.162"/>
	</g>
	<g>
		<defs>
			<rect id="SVGID_19_" x="31.596" y="64.305" width="15.237" height="0.439"/>
		</defs>
		<clipPath id="SVGID_20_">
			<use xlink:href="#SVGID_19_"  overflow="visible"/>
		</clipPath>
		
			<linearGradient id="SVGID_21_" gradientUnits="userSpaceOnUse" x1="-99.4951" y1="303.0195" x2="-98.0029" y2="303.0195" gradientTransform="matrix(9.8891 0 0 -9.8891 1015.9542 3061.1309)">
			<stop  offset="0" style="stop-color:#D3D3D3"/>
			<stop  offset="0.1" style="stop-color:#D3D3D3"/>
			<stop  offset="0.1217" style="stop-color:#D4D4D4"/>
			<stop  offset="1" style="stop-color:#FAFAFA"/>
		</linearGradient>
		<rect x="31.596" y="64.305" clip-path="url(#SVGID_20_)" fill="url(#SVGID_21_)" width="15.237" height="0.439"/>
	</g>
	<rect x="16.8" y="64.305" fill="#D3D3D3" width="15.237" height="0.439"/>
	<g>
		<defs>
			<rect id="SVGID_22_" x="61.187" y="19.915" width="15.24" height="0.438"/>
		</defs>
		<clipPath id="SVGID_23_">
			<use xlink:href="#SVGID_22_"  overflow="visible"/>
		</clipPath>
		
			<linearGradient id="SVGID_24_" gradientUnits="userSpaceOnUse" x1="-98.8511" y1="305.3105" x2="-97.3584" y2="305.3105" gradientTransform="matrix(10.2114 0 0 -10.2114 1070.9335 3137.79)">
			<stop  offset="0" style="stop-color:#C1C2C2"/>
			<stop  offset="0.4703" style="stop-color:#C3C3C3"/>
			<stop  offset="0.6557" style="stop-color:#C9C9C9"/>
			<stop  offset="0.7907" style="stop-color:#D4D4D3"/>
			<stop  offset="0.9007" style="stop-color:#E4E3E3"/>
			<stop  offset="0.9954" style="stop-color:#FDFCFC"/>
			<stop  offset="1" style="stop-color:#FFFFFF"/>
		</linearGradient>
		<rect x="61.187" y="19.915" clip-path="url(#SVGID_23_)" fill="url(#SVGID_24_)" width="15.239" height="0.438"/>
	</g>
	<g>
		<defs>
			<rect id="SVGID_25_" x="61.187" y="34.718" width="15.24" height="0.435"/>
		</defs>
		<clipPath id="SVGID_26_">
			<use xlink:href="#SVGID_25_"  overflow="visible"/>
		</clipPath>
		
			<linearGradient id="SVGID_27_" gradientUnits="userSpaceOnUse" x1="-98.8511" y1="304.832" x2="-97.3584" y2="304.832" gradientTransform="matrix(10.2114 0 0 -10.2114 1070.9257 3147.7041)">
			<stop  offset="0" style="stop-color:#C1C2C2"/>
			<stop  offset="0.1" style="stop-color:#C1C2C2"/>
			<stop  offset="0.1237" style="stop-color:#C6C6C6"/>
			<stop  offset="0.2276" style="stop-color:#D5D5D5"/>
			<stop  offset="0.3554" style="stop-color:#E0E0E0"/>
			<stop  offset="0.533" style="stop-color:#E7E7E7"/>
			<stop  offset="1" style="stop-color:#E9E8E9"/>
		</linearGradient>
		<rect x="61.187" y="34.718" clip-path="url(#SVGID_26_)" fill="url(#SVGID_27_)" width="15.239" height="0.435"/>
	</g>
	<g>
		<defs>
			<rect id="SVGID_28_" x="61.187" y="49.508" width="15.24" height="0.442"/>
		</defs>
		<clipPath id="SVGID_29_">
			<use xlink:href="#SVGID_28_"  overflow="visible"/>
		</clipPath>
		
			<linearGradient id="SVGID_30_" gradientUnits="userSpaceOnUse" x1="-98.8511" y1="304.3535" x2="-97.3584" y2="304.3535" gradientTransform="matrix(10.2114 0 0 -10.2114 1070.9257 3157.6182)">
			<stop  offset="0" style="stop-color:#C1C2C2"/>
			<stop  offset="0.4402" style="stop-color:#DADAD9"/>
			<stop  offset="1" style="stop-color:#FAFAFA"/>
		</linearGradient>
		<rect x="61.187" y="49.509" clip-path="url(#SVGID_29_)" fill="url(#SVGID_30_)" width="15.239" height="0.44"/>
	</g>
	<g>
		<defs>
			<rect id="SVGID_31_" x="67.625" y="19.916" width="15.247" height="0.438"/>
		</defs>
		<clipPath id="SVGID_32_">
			<use xlink:href="#SVGID_31_"  overflow="visible"/>
		</clipPath>
		
			<linearGradient id="SVGID_33_" gradientUnits="userSpaceOnUse" x1="-98.6489" y1="305.3242" x2="-97.1567" y2="305.3242" gradientTransform="matrix(10.2175 0 0 -10.2175 1075.9014 3139.7864)">
			<stop  offset="0" style="stop-color:#E9E8E9"/>
			<stop  offset="0.2753" style="stop-color:#E9E8E9"/>
			<stop  offset="0.7055" style="stop-color:#EBEAEA"/>
			<stop  offset="0.8875" style="stop-color:#F2F1F1"/>
			<stop  offset="1" style="stop-color:#FFFFFF"/>
		</linearGradient>
		<rect x="67.625" y="19.916" clip-path="url(#SVGID_32_)" fill="url(#SVGID_33_)" width="15.247" height="0.437"/>
	</g>
	<g>
		<defs>
			<rect id="SVGID_34_" x="2" y="34.718" width="14.8" height="0.435"/>
		</defs>
		<clipPath id="SVGID_35_">
			<use xlink:href="#SVGID_34_"  overflow="visible"/>
		</clipPath>
		
			<linearGradient id="SVGID_36_" gradientUnits="userSpaceOnUse" x1="-118.6689" y1="356.6738" x2="-117.1771" y2="356.6738" gradientTransform="matrix(-9.7381 0 0 9.7381 -1138.8052 -3438.3801)">
			<stop  offset="0" style="stop-color:#C1C2C2"/>
			<stop  offset="0.3863" style="stop-color:#C4C4C4"/>
			<stop  offset="0.6349" style="stop-color:#CBCBCB"/>
			<stop  offset="0.8441" style="stop-color:#D9D8D8"/>
			<stop  offset="1" style="stop-color:#E9E8E9"/>
		</linearGradient>
		<rect x="2.001" y="34.718" clip-path="url(#SVGID_35_)" fill="url(#SVGID_36_)" width="14.798" height="0.435"/>
	</g>
	<g>
		<defs>
			<rect id="SVGID_37_" x="16.8" y="19.915" width="0.441" height="14.796"/>
		</defs>
		<clipPath id="SVGID_38_">
			<use xlink:href="#SVGID_37_"  overflow="visible"/>
		</clipPath>
		
			<linearGradient id="SVGID_39_" gradientUnits="userSpaceOnUse" x1="-131.8589" y1="322.1367" x2="-130.3662" y2="322.1367" gradientTransform="matrix(0 -11.4563 -11.4563 0 3707.5183 -1474.3529)">
			<stop  offset="0" style="stop-color:#C1C2C2"/>
			<stop  offset="0.4901" style="stop-color:#C4C4C4"/>
			<stop  offset="0.7869" style="stop-color:#CBCBCB"/>
			<stop  offset="1" style="stop-color:#D5D5D6"/>
		</linearGradient>
		<rect x="16.8" y="19.915" clip-path="url(#SVGID_38_)" fill="url(#SVGID_39_)" width="0.44" height="14.796"/>
	</g>
	<g>
		<defs>
			<rect id="SVGID_40_" x="2.004" y="19.914" width="29.589" height="0.44"/>
		</defs>
		<clipPath id="SVGID_41_">
			<use xlink:href="#SVGID_40_"  overflow="visible"/>
		</clipPath>
		
			<linearGradient id="SVGID_42_" gradientUnits="userSpaceOnUse" x1="-114.1616" y1="343.0098" x2="-112.6687" y2="343.0098" gradientTransform="matrix(-19.6958 0 0 19.6958 -2216.9131 -6735.7109)">
			<stop  offset="0" style="stop-color:#C1C2C2"/>
			<stop  offset="0.3418" style="stop-color:#CBCBCB"/>
			<stop  offset="0.9365" style="stop-color:#E5E5E5"/>
			<stop  offset="1" style="stop-color:#E9E8E9"/>
		</linearGradient>
		<rect x="2.005" y="19.915" clip-path="url(#SVGID_41_)" fill="url(#SVGID_42_)" width="29.588" height="0.44"/>
	</g>
	<rect x="2.004" y="19.913" fill="#E9E8E9" width="0.436" height="14.796"/>
	<g>
		<defs>
			<rect id="SVGID_43_" x="16.792" y="49.949" width="0.449" height="14.795"/>
		</defs>
		<clipPath id="SVGID_44_">
			<use xlink:href="#SVGID_43_"  overflow="visible"/>
		</clipPath>
		
			<linearGradient id="SVGID_45_" gradientUnits="userSpaceOnUse" x1="-85.6802" y1="338.3535" x2="-84.1879" y2="338.3535" gradientTransform="matrix(0 11.1562 11.1562 0 -3757.7173 1005.0437)">
			<stop  offset="0" style="stop-color:#C1C2C2"/>
			<stop  offset="0.1" style="stop-color:#C1C2C2"/>
			<stop  offset="0.5875" style="stop-color:#C3C3C3"/>
			<stop  offset="0.7732" style="stop-color:#C9C9C9"/>
			<stop  offset="0.9" style="stop-color:#D3D3D3"/>
			<stop  offset="1" style="stop-color:#D3D3D3"/>
		</linearGradient>
		<rect x="16.793" y="49.949" clip-path="url(#SVGID_44_)" fill="url(#SVGID_45_)" width="0.448" height="14.795"/>
	</g>
	<g>
		<defs>
			<rect id="SVGID_46_" x="31.597" y="49.949" width="0.442" height="14.795"/>
		</defs>
		<clipPath id="SVGID_47_">
			<use xlink:href="#SVGID_46_"  overflow="visible"/>
		</clipPath>
		
			<linearGradient id="SVGID_48_" gradientUnits="userSpaceOnUse" x1="-86.2886" y1="338.5674" x2="-84.7962" y2="338.5674" gradientTransform="matrix(0 11.4516 11.4516 0 -3845.334 1037.3213)">
			<stop  offset="0" style="stop-color:#C1C2C2"/>
			<stop  offset="0.1" style="stop-color:#C1C2C2"/>
			<stop  offset="0.5875" style="stop-color:#C3C3C3"/>
			<stop  offset="0.7732" style="stop-color:#C9C9C9"/>
			<stop  offset="0.9" style="stop-color:#D3D3D3"/>
			<stop  offset="1" style="stop-color:#D3D3D3"/>
		</linearGradient>
		<rect x="31.597" y="49.949" clip-path="url(#SVGID_47_)" fill="url(#SVGID_48_)" width="0.442" height="14.795"/>
	</g>
	<rect x="17.02" y="49.725" fill="#508FCC" width="14.797" height="14.797"/>
	<rect x="31.817" y="34.933" fill="#1D468B" width="14.796" height="14.794"/>
	<rect x="46.613" y="34.933" fill="#05A2A3" width="14.796" height="14.794"/>
	<rect x="2.225" y="20.133" fill="#E83736" width="14.796" height="14.798"/>
	<rect x="46.613" y="20.133" fill="#F39F1F" width="14.796" height="14.798"/>
	<rect x="61.408" y="20.133" fill="#F8BE33" width="14.796" height="14.798"/>
	<rect x="61.408" y="5.338" fill="#E83736" width="14.796" height="14.795"/>
	<g>
		<defs>
			<rect id="SVGID_49_" x="2.001" y="0.256" width="195.999" height="64.488"/>
		</defs>
		<clipPath id="SVGID_50_">
			<use xlink:href="#SVGID_49_"  overflow="visible"/>
		</clipPath>
		<path clip-path="url(#SVGID_50_)" fill="#1D468B" d="M149.612,33.677l3.24-3.487c-1.668,0.53-4.021,1.163-6.053,1.163
			c-5.154,0-6.619-2.796-6.607-5.142c0.018-3.678,3.15-7.321,8.103-7.321c3.126,0,4.665,1.193,5.454,2.028l2.064-4.475
			c-2.802-1.822-7.086-1.829-7.882-1.829c-9.788,0-14.859,5.669-14.859,11.903c0,5.029,3.772,8.967,10.731,8.967
			c1.871,0,3.949-0.568,4.787-0.736L149.612,33.677z"/>
		<path clip-path="url(#SVGID_50_)" fill="#1D468B" d="M130.508,33.677l3.241-3.487c-1.669,0.53-4.021,1.163-6.054,1.163
			c-5.153,0-6.618-2.796-6.606-5.142c0.018-3.678,3.152-7.321,8.105-7.321c3.123,0,4.664,1.193,5.452,2.028l2.06-4.475
			c-2.8-1.822-7.082-1.829-7.877-1.829c-9.788,0-14.859,5.669-14.859,11.903c0,5.029,3.771,8.967,10.733,8.967
			c1.866,0,3.946-0.568,4.782-0.736L130.508,33.677z"/>
		<path clip-path="url(#SVGID_50_)" fill="#1D468B" d="M107.494,15.22H97.173l-6.12,19.728h7.216l2.022-6.401
			c1.165,0.169,2.589,0.335,4.04,0.335c1.963,0,4.833-0.166,7.283-1.786c1.963-1.313,3.293-3.63,3.371-5.885
			C115.12,17.245,111.001,15.22,107.494,15.22 M107.673,22.177c-0.222,0.771-1.184,2.168-3.146,2.336
			c-0.937,0.145-2.133,0.071-2.936-0.182l1.416-4.695h2.393C106.654,19.636,108.156,20.484,107.673,22.177"/>
		<polygon clip-path="url(#SVGID_50_)" fill="#1D468B" points="176.429,34.926 168.89,34.926 168.685,25.547 163.753,34.926 
			155.345,34.926 155.831,15.201 162.655,15.201 161.861,26.629 168.758,15.201 173.932,15.201 174.692,26.697 179.902,15.201 
			187.245,15.201 		"/>
		<polygon clip-path="url(#SVGID_50_)" fill="#1D468B" points="95.742,41.258 110.242,41.258 109.14,42.668 103.353,42.668 
			103.067,43.545 109.323,43.545 111.021,43.545 109.649,47.758 107.955,47.758 108.866,44.948 102.612,44.948 101.44,48.549 
			99.587,48.549 100.757,44.948 94.486,44.948 93.561,47.758 91.894,47.758 92.807,44.948 93.264,43.545 94.949,43.545 
			101.214,43.545 101.498,42.668 95.281,42.668 		"/>
		<path clip-path="url(#SVGID_50_)" fill="#1D468B" d="M100.821,50.463l-0.296,0.913h4.827l0.295-0.913H100.821z M98.668,51.376
			l0.295-0.913h-4.822l-0.294,0.913H98.668z M99.823,53.535h4.824l0.322-0.989h-4.825L99.823,53.535z M93.145,53.535h4.818
			l0.323-0.989h-4.82L93.145,53.535z M105.005,54.785h-0.762h-4.828c-0.034,0.109-0.066,0.213-0.091,0.309
			c-0.037,0.147-0.063,0.305-0.019,0.446c0.096,0.313,0.462,0.431,1.12,0.431h7l-1.1,1.402h-6.422c-1.891,0-2.257-0.52-2.439-1.06
			c-0.097-0.281-0.092-0.589-0.049-0.882c0.035-0.246,0.089-0.473,0.144-0.646h-4.819h-0.702h-0.994l1.809-5.571h0.975h0.722h4.823
			h1.854h4.828h0.742h0.953l-1.813,5.571H105.005z"/>
		<path clip-path="url(#SVGID_50_)" fill="#1D468B" d="M114.202,56.47h-1.416h-0.268l1.904-5.864h0.629h1.055h2.92h0.969h0.714
			l-1.903,5.864h-0.723h-0.963H114.202z M115.647,52.016l-0.988,3.045h2.918l0.99-3.045H115.647z"/>
		<path clip-path="url(#SVGID_50_)" fill="#1D468B" d="M132.873,41.258l-4.529,13.936c-0.327,0.953,1.163,0.984,1.784,0.98
			l-1.046,1.334c0,0-3.419,0.269-2.562-2.42c0.093-0.285,2.863-8.806,4.006-12.327h-2.854c-0.381,1.167-0.939,2.809-1.619,4.614
			h2.691l-1.178,1.508h-2.096c-1.243,3.133-2.781,6.467-4.343,8.49h-2.421c1.99-2.137,3.67-5.432,4.94-8.49h-1.452l0.49-1.508h1.564
			c0.704-1.836,1.244-3.486,1.591-4.614h-1.657l0.488-1.503h1.613h1.863h2.867H132.873z"/>
		<path clip-path="url(#SVGID_50_)" fill="#1D468B" d="M143.829,46.043c0.332,0.23,0.736,0.552,1.179,0.92
			c0.649-0.512,1.235-1.033,1.704-1.533h-5.035c-0.807,1.58-2.055,3.339-3.987,4.843h-2.364c2.844-2.168,4.74-4.457,5.607-7.512
			h-2.17l0.49-1.503h11.97h1.498h0.274l-0.912,2.81h0.317h1.472h0.302l-0.918,2.825c-0.919,2.838-2.038,3.97-4.018,3.509
			l-1.17-1.911c1.036,0.539,2.18,0.604,2.649,0.055c0.245-0.284,0.735-1.626,0.744-1.67l0.484-1.445h-0.307h-1.026h-0.745
			l0.867-2.669h-7.994c-0.117,0.394-0.266,0.833-0.451,1.307h5.439h2.01h0.086c-1.063,1.544-2.43,2.857-3.697,3.88
			c0.896,0.816,1.779,1.691,2.338,2.325h-2.281c-0.51-0.552-0.939-1.001-1.31-1.382c-1.084,0.766-1.951,1.244-2.259,1.382h-3.529
			c1.463-0.46,3.181-1.374,4.714-2.424c-0.771-0.704-1.333-1.1-2.253-1.806H143.829z"/>
		<path clip-path="url(#SVGID_50_)" fill="#1D468B" d="M138.578,52.404l-1.193,3.65h2.347l1.183-3.65H138.578z M151.3,51.214
			l-0.303,0.936L151.3,51.214z M151.3,51.214l-0.303,0.936l-0.084,0.255l-1.184,3.65h2.295l-1.027,1.316h-17.623l0.435-1.316h1.806
			l1.58-4.841l0.041-0.127h14.104L151.3,51.214L151.3,51.214z M143.845,56.055l1.183-3.65h-2.339l-1.185,3.65H143.845z
			 M146.8,52.404l-1.186,3.65h2.344l1.184-3.65H146.8z"/>
		<path clip-path="url(#SVGID_50_)" fill="#1D468B" d="M161.212,49.189c-0.737,1.128-1.717,2.396-3.006,3.54h-2.187
			c2.411-2.065,4.099-4.224,4.845-5.552h-2.291l0.526-1.622h3.293l0.864-2.665h-2.889l0.534-1.633h2.885h1.774h2.656l-1.274,1.633
			h-1.914l-0.864,2.665h3.092l-1.269,1.622h-2.138c0.818,1.091,1.551,2.496,1.975,3.707h-1.748
			c-0.351-0.928-0.662-1.604-0.955-2.126l-2.797,8.614h-1.773L161.212,49.189z"/>
		<polygon clip-path="url(#SVGID_50_)" fill="#1D468B" points="176.429,41.258 173.13,51.418 175.478,51.418 174.226,53.021 
			172.608,53.021 171.193,57.373 169.342,57.373 170.759,53.021 164.757,53.021 165.276,51.418 171.278,51.418 174.581,41.258 		"/>
		<polygon clip-path="url(#SVGID_50_)" fill-rule="evenodd" clip-rule="evenodd" fill="#1D468B" points="169.049,43.545 
			173.289,43.545 172.063,45.111 167.825,45.111 		"/>
		<polygon clip-path="url(#SVGID_50_)" fill-rule="evenodd" clip-rule="evenodd" fill="#1D468B" points="167.805,47.376 
			172.043,47.376 170.819,48.939 166.579,48.939 		"/>
		<polygon clip-path="url(#SVGID_50_)" fill-rule="evenodd" clip-rule="evenodd" fill="#1D468B" points="117.46,41.258 
			123.842,41.258 122.739,42.668 116.995,42.668 		"/>
		<polygon clip-path="url(#SVGID_50_)" fill-rule="evenodd" clip-rule="evenodd" fill="#1D468B" points="116.067,43.545 
			123.718,43.545 122.573,45.033 115.574,45.033 		"/>
		<polygon clip-path="url(#SVGID_50_)" fill-rule="evenodd" clip-rule="evenodd" fill="#1D468B" points="115.935,45.965 
			122.315,45.965 121.214,47.375 115.468,47.375 		"/>
		<polygon clip-path="url(#SVGID_50_)" fill-rule="evenodd" clip-rule="evenodd" fill="#1D468B" points="115.19,48.252 
			121.573,48.252 120.47,49.662 114.728,49.662 		"/>
		<polygon clip-path="url(#SVGID_50_)" fill-rule="evenodd" clip-rule="evenodd" fill="#1D468B" points="103.553,45.538 
			108.036,45.538 107.139,46.684 102.655,46.684 		"/>
		<polygon clip-path="url(#SVGID_50_)" fill-rule="evenodd" clip-rule="evenodd" fill="#1D468B" points="102.94,47.4 107.425,47.4 
			106.529,48.549 102.046,48.549 		"/>
		<polygon clip-path="url(#SVGID_50_)" fill-rule="evenodd" clip-rule="evenodd" fill="#1D468B" points="95.42,45.538 
			99.905,45.538 99.008,46.684 94.521,46.684 		"/>
		<polygon clip-path="url(#SVGID_50_)" fill-rule="evenodd" clip-rule="evenodd" fill="#1D468B" points="94.809,47.4 99.294,47.4 
			98.397,48.549 93.912,48.549 		"/>
		<path clip-path="url(#SVGID_50_)" fill="#1D468B" d="M188.269,12.04c0-2.68,2.176-4.866,4.867-4.866s4.865,2.187,4.865,4.866
			s-2.174,4.867-4.865,4.867S188.269,14.72,188.269,12.04 M197.262,12.04c0-2.32-1.802-4.125-4.126-4.125
			c-2.318,0-4.121,1.805-4.121,4.125c0,2.319,1.803,4.12,4.121,4.12C195.46,16.16,197.262,14.359,197.262,12.04 M193.231,9.108
			c1.67,0,2.031,0.935,2.031,1.705c0,0.72-0.505,1.37-1.369,1.539l1.248,2.837h-0.818l-1.188-2.727h-1.192v2.727H191.2V9.108
			H193.231z M191.866,11.798h0.984c1.236,0,1.443-0.432,1.443-0.996c0-0.781-0.504-1.036-1.311-1.036h-1.117V11.798z"/>
	</g>
</g>
</svg>
